# xmcd
#
# Track frame offsets:
#	150
#	19111
#	31408
#	42815
#	59469
#	75928
#	93226
#	107012
#	124950
#	140464
#	151645
#	168286
#	180247
#
# Disc length: 2643 seconds
#
# Revision: 0
# Processed by: cddbd v1.5.2PL0 Copyright (c) Steve Scherf et al.
# Submitted via: EasyCDDAExtractor 11.5.0.1
#
DISCID=910a510d
DTITLE=Gladly S.W. - ... za 5 minut dvanáct
DYEAR=2010
DGENRE=Country
TTITLE0=Vítr nad Berounkou
TTITLE1=Sainte Mere Église
TTITLE2=Podzim
TTITLE3=Deníček
TTITLE4=Staronový mlýn
TTITLE5=Pilot Václav z Kročehlav
TTITLE6=Srpen 1968
TTITLE7=Životy
TTITLE8=Sen o krajince
TTITLE9=Pomník
TTITLE10=Stroj času
TTITLE11=Charlie
TTITLE12=Patrona z války
EXTD=
EXTT0=
EXTT1=
EXTT2=
EXTT3=
EXTT4=
EXTT5=
EXTT6=
EXTT7=
EXTT8=
EXTT9=
EXTT10=
EXTT11=
EXTT12=
PLAYORDER=
